<?xml version="1.0"?>
<svg xmlns="http://www.w3.org/2000/svg" height="512px" viewBox="0 0 512.00003 512.00003" width="512px"><path d="m477.867188 0c-18.851563 0-34.132813 15.28125-34.132813 34.132812v25.601563h-25.824219c-7.964844-10.738281-20.542968-17.070313-33.910156-17.070313s-25.945312 6.332032-33.910156 17.070313h-51.644532c-7.964843-10.738281-20.542968-17.070313-33.910156-17.070313-13.371094 0-25.949218 6.332032-33.914062 17.070313h-.441406c-7.964844-10.738281-20.542969-17.070313-33.914063-17.070313-13.367187 0-25.945313 6.332032-33.910156 17.070313h-.445313c-7.964844-10.738281-20.542968-17.070313-33.910156-17.070313s-25.945312 6.332032-33.910156 17.070313h-25.824219v-25.601563c0-18.851562-15.28125-34.132812-34.132813-34.132812-18.851562 0-34.132812 15.28125-34.132812 34.132812v443.734376c0 18.851562 15.28125 34.132812 34.132812 34.132812 18.851563 0 34.132813-15.28125 34.132813-34.132812v-51.421876c8.953125 6.90625 20.308594 9.914063 31.503906 8.351563 11.195313-1.5625 21.292969-7.570313 28.007813-16.664063h119.910156c7.964844 10.738282 20.542969 17.066407 33.914062 17.066407 13.367188 0 25.945313-6.328125 33.910157-17.066407h.445312c7.960938 10.738282 20.542969 17.066407 33.910157 17.066407 13.367187 0 25.945312-6.328125 33.910156-17.066407h.445312c6.714844 9.09375 16.8125 15.101563 28.007813 16.664063 11.195312 1.5625 22.550781-1.445313 31.503906-8.351563v51.421876c0 18.851562 15.28125 34.132812 34.132813 34.132812 18.851562 0 34.132812-15.28125 34.132812-34.132812v-443.734376c0-18.851562-15.28125-34.132812-34.132812-34.132812zm-93.644532 366.933594h-.445312c-7.964844-10.738282-20.542969-17.066406-33.910156-17.066406-13.367188 0-25.949219 6.328124-33.910157 17.066406h-.445312c-7.964844-10.738282-20.542969-17.066406-33.910157-17.066406-13.371093 0-25.949218 6.328124-33.914062 17.066406h-119.910156c-6.714844-9.09375-16.8125-15.101563-28.007813-16.664063-11.195312-1.5625-22.550781 1.445313-31.503906 8.351563v-42.886719h25.824219c7.964844 10.734375 20.542968 17.066406 33.910156 17.066406s25.945312-6.332031 33.910156-17.066406h51.644532c7.964843 10.734375 20.542968 17.066406 33.910156 17.066406 13.371094 0 25.949218-6.332031 33.914062-17.066406h.441406c7.964844 10.734375 20.542969 17.066406 33.914063 17.066406 13.367187 0 25.945313-6.332031 33.910156-17.066406h.445313c7.964844 10.734375 20.542968 17.066406 33.910156 17.066406s25.945312-6.332031 33.910156-17.066406h25.824219v42.886719c-8.953125-6.90625-20.308594-9.914063-31.503906-8.351563-11.195313 1.5625-21.292969 7.570313-28.007813 16.664063zm-256.222656-238.933594c13.359375-.039062 25.921875-6.359375 33.910156-17.066406h.445313c7.964843 10.738281 20.542969 17.066406 33.910156 17.066406 13.371094 0 25.949219-6.328125 33.914063-17.066406h.441406c7.964844 10.738281 20.542968 17.066406 33.914062 17.066406 13.367188 0 25.945313-6.328125 33.910156-17.066406h51.644532c7.964844 10.738281 20.542968 17.066406 33.910156 17.066406s25.945312-6.328125 33.910156-17.066406h25.824219v42.886718c-8.953125-6.902343-20.308594-9.914062-31.503906-8.351562-11.195313 1.566406-21.292969 7.570312-28.007813 16.664062h-60.179687c-7.960938-10.734374-20.542969-17.066406-33.910157-17.066406-13.367187 0-25.945312 6.332032-33.910156 17.066406h-.445312c-7.964844-10.734374-20.542969-17.066406-33.910156-17.066406-13.367188 0-25.949219 6.332032-33.910157 17.066406h-.445312c-7.964844-10.734374-20.542969-17.066406-33.910157-17.066406-13.371093 0-25.949218 6.332032-33.914062 17.066406h-51.421875v-51.199218h25.824219c7.988281 10.707031 20.550781 17.027344 33.910156 17.066406zm315.734375 59.734375c0 14.136719-11.460937 25.597656-25.601563 25.597656-14.136718 0-25.597656-11.460937-25.597656-25.597656 0-14.140625 11.460938-25.601563 25.597656-25.601563 14.140626 0 25.601563 11.460938 25.601563 25.601563zm-67.414063 8.53125h-44.375c1.152344-5.628906 1.152344-11.433594 0-17.066406h44.375c-1.148437 5.632812-1.148437 11.4375 0 17.066406zm-60.585937-8.53125c0 14.136719-11.460937 25.597656-25.601563 25.597656-14.136718 0-25.597656-11.460937-25.597656-25.597656 0-14.140625 11.460938-25.601563 25.597656-25.601563 14.140626 0 25.601563 11.460938 25.601563 25.601563zm-68.269531 0c0 14.136719-11.460938 25.597656-25.597656 25.597656-14.140626 0-25.601563-11.460937-25.601563-25.597656 0-14.140625 11.460937-25.601563 25.601563-25.601563 14.136718 0 25.597656 11.460938 25.597656 25.601563zm-68.265625 0c0 14.136719-11.460938 25.597656-25.597657 25.597656-14.140624 0-25.601562-11.460937-25.601562-25.597656 0-14.140625 11.460938-25.601563 25.601562-25.601563 14.136719 0 25.597657 11.460938 25.597657 25.601563zm-67.414063 8.53125h-43.519531v-17.066406h43.519531c-1.148437 5.632812-1.148437 11.4375 0 17.066406zm-43.519531 85.335937h17.921875c-1.148438 5.628907-1.148438 11.433594 0 17.066407h-17.921875zm34.132813 8.53125c0-14.136718 11.464843-25.597656 25.601562-25.597656s25.601562 11.460938 25.601562 25.597656c0 14.140626-11.464843 25.601563-25.601562 25.601563s-25.601562-11.460937-25.601562-25.601563zm67.414062-8.53125h35.839844c-1.148438 5.628907-1.148438 11.433594 0 17.066407h-35.839844c1.148438-5.632813 1.148438-11.4375 0-17.066407zm52.054688 8.53125c0-14.136718 11.460937-25.597656 25.597656-25.597656 14.140625 0 25.601562 11.460938 25.601562 25.597656 0 14.140626-11.460937 25.601563-25.601562 25.601563-14.136719 0-25.597656-11.460937-25.597656-25.601563zm68.265624 0c0-14.136718 11.460938-25.597656 25.601563-25.597656 14.136719 0 25.597656 11.460938 25.597656 25.597656 0 14.140626-11.460937 25.601563-25.597656 25.601563-14.140625 0-25.601563-11.460937-25.601563-25.601563zm68.265626 0c0-14.136718 11.464843-25.597656 25.601562-25.597656s25.601562 11.460938 25.601562 25.597656c0 14.140626-11.464843 25.601563-25.601562 25.601563s-25.601562-11.460937-25.601562-25.601563zm67.414062-8.53125h17.921875v17.066407h-17.921875c1.148438-5.632813 1.148438-11.4375 0-17.066407zm17.921875-17.066406h-25.824219c-7.964844-10.738281-20.542968-17.070312-33.910156-17.070312s-25.945312 6.332031-33.910156 17.070312h-.445313c-7.964843-10.738281-20.542969-17.070312-33.910156-17.070312-13.371094 0-25.949219 6.332031-33.914063 17.070312h-.441406c-7.964844-10.738281-20.542968-17.070312-33.914062-17.070312-13.367188 0-25.945313 6.332031-33.910156 17.070312h-51.644532c-7.964844-10.738281-20.542968-17.070312-33.910156-17.070312s-25.945312 6.332031-33.910156 17.070312h-25.824219v-51.203125h51.421875c7.964844 10.738281 20.542969 17.070313 33.914062 17.070313 13.367188 0 25.945313-6.332032 33.910157-17.070313h.445312c7.960938 10.738281 20.542969 17.070313 33.910157 17.070313 13.367187 0 25.945312-6.332032 33.910156-17.070313h.445312c7.964844 10.738281 20.542969 17.070313 33.910156 17.070313 13.367188 0 25.949219-6.332032 33.910157-17.070313h60.179687c6.714844 9.09375 16.8125 15.101563 28.007813 16.664063 11.195312 1.566406 22.550781-1.445313 31.503906-8.351563zm0-187.734375v17.066407h-17.921875c1.148438-5.632813 1.148438-11.4375 0-17.066407zm-59.734375-17.066406c14.136719 0 25.601562 11.460937 25.601562 25.597656 0 14.140625-11.464843 25.601563-25.601562 25.601563s-25.601562-11.460938-25.601562-25.601563c0-14.136719 11.464843-25.597656 25.601562-25.597656zm-41.8125 17.066406c-1.148438 5.628907-1.148438 11.433594 0 17.066407h-35.839844c1.148438-5.632813 1.148438-11.4375 0-17.066407zm-77.652344-17.066406c14.136719 0 25.597656 11.460937 25.597656 25.597656 0 14.140625-11.460937 25.601563-25.597656 25.601563-14.140625 0-25.601562-11.460938-25.601562-25.601563 0-14.136719 11.460937-25.597656 25.601562-25.597656zm-68.269531 0c14.140625 0 25.601563 11.460937 25.601563 25.597656 0 14.140625-11.460938 25.601563-25.601563 25.601563-14.136719 0-25.597656-11.460938-25.597656-25.601563 0-14.136719 11.460937-25.597656 25.597656-25.597656zm-68.265625 0c14.136719 0 25.601562 11.460937 25.601562 25.597656 0 14.140625-11.464843 25.601563-25.601562 25.601563s-25.601562-11.460938-25.601562-25.601563c0-14.136719 11.464843-25.597656 25.601562-25.597656zm-41.8125 17.066406c-1.148438 5.628907-1.148438 11.433594 0 17.066407h-17.921875v-17.066407zm-34.988281 401.066407c0 9.425781-7.640625 17.066406-17.066407 17.066406-9.425781 0-17.066406-7.640625-17.066406-17.066406v-443.734376c0-9.425781 7.640625-17.066406 17.066406-17.066406 9.425782 0 17.066407 7.640625 17.066407 17.066406zm42.667969-59.734376c-14.140626 0-25.601563-11.460937-25.601563-25.597656 0-14.140625 11.460937-25.601562 25.601563-25.601562 14.136718 0 25.597656 11.460937 25.597656 25.601562 0 14.136719-11.460938 25.597656-25.597656 25.597656zm41.8125-17.066406c1.148437-5.628906 1.148437-11.4375 0-17.066406h104.105468c-1.148437 5.628906-1.148437 11.4375 0 17.066406zm145.921874 17.066406c-14.140624 0-25.601562-11.460937-25.601562-25.597656 0-14.140625 11.460938-25.601562 25.601562-25.601562 14.136719 0 25.597657 11.460937 25.597657 25.601562 0 14.136719-11.460938 25.597656-25.597657 25.597656zm68.265626 0c-14.140626 0-25.601563-11.460937-25.601563-25.597656 0-14.140625 11.460937-25.601562 25.601563-25.601562 14.136718 0 25.597656 11.460937 25.597656 25.601562 0 14.136719-11.460938 25.597656-25.597656 25.597656zm68.265624 0c-14.136718 0-25.597656-11.460937-25.597656-25.597656 0-14.140625 11.460938-25.601562 25.597656-25.601562 14.140626 0 25.601563 11.460937 25.601563 25.601562 0 14.136719-11.460937 25.597656-25.601563 25.597656zm76.800782 59.734376c0 9.425781-7.640625 17.066406-17.066406 17.066406-9.425782 0-17.066407-7.640625-17.066407-17.066406v-443.734376c0-9.425781 7.640625-17.066406 17.066407-17.066406 9.425781 0 17.066406 7.640625 17.066406 17.066406zm0 0" fill="#FFFFFF"/></svg>
