<svg width="580" height="200" xmlns="http://www.w3.org/2000/svg">
 <!-- Created with Method Draw - http://github.com/duopixel/Method-Draw/ -->

 <g>
  <title>background</title>
  <rect fill="none" id="canvas_background" height="202" width="582" y="-1" x="-1"/>
  <g display="none" overflow="visible" y="0" x="0" height="100%" width="100%" id="canvasGrid">
   <rect fill="url(#gridpattern)" stroke-width="0" y="0" x="0" height="100%" width="100%"/>
  </g>
 </g>
 <g>
  <title>Layer 1</title>
  <text font-weight="bold" xml:space="preserve" text-anchor="start" font-family="Junction, sans-serif" font-size="92" id="svg_1" y="133" x="21" stroke-width="4" stroke="#0c3656" fill="#0c3656">GAME    IME</text>
  <g stroke="null" transform="rotate(135 360.3402099609375,95.50007629394531) " id="svg_32">
   <path stroke="null" id="svg_6" fill="#CDD2DF" d="m357.916133,116.550018l-18.62613,-18.62613l55.237024,-55.236767c4.361489,-4.361489 9.759882,-7.54332 15.688064,-9.246841l13.287003,-3.818042c1.657912,-0.47645 3.192396,1.058033 2.715946,2.715946l-3.818042,13.287003c-1.703521,5.928183 -4.885352,11.326575 -9.246841,15.688064l-55.237024,55.236767z"/>
   <path stroke="null" id="svg_7" fill="#BBC6D4" d="m413.1529,61.312993c4.361489,-4.361489 7.54332,-9.759882 9.246841,-15.688064l3.8183,-13.287003c0.223151,-0.776905 0.001804,-1.523661 -0.463824,-2.051905l-34.39124,34.391498l-42.659929,42.659671l9.212827,9.212827l55.237024,-55.237024z"/>
   <path stroke="null" id="svg_8" fill="#FFFFFF" d="m348.703306,109.461503c-0.543704,0 -1.087409,-0.207432 -1.502016,-0.622297c-0.829729,-0.829471 -0.829729,-2.17456 0,-3.004289l42.659671,-42.659671c0.829471,-0.829471 2.17456,-0.829471 3.004032,0c0.829729,0.829471 0.829729,2.17456 0,3.004289l-42.659671,42.659671c-0.414865,0.414865 -0.958311,0.622297 -1.502016,0.622297z"/>
   <rect stroke="null" id="svg_9" fill="#FF9400" height="114.289" width="62.649" transform="matrix(-0.18220541799556145,-0.18220541799556145,0.18220541799556145,-0.18220541799556145,-4924.81390905567,-814.4645656695225) " y="11728.000835" x="-17031.693396"/>
   <polygon stroke="null" id="svg_10" fill="#FF7A00" points="324.7667541503906,119.65715026855469 324.7667541503906,119.65715026855469 332.24029541015625,127.13037109375 311.4165344238281,147.9542236328125 303.9430236816406,140.48101806640625 303.9430236816406,140.48101806640625 315.3590393066406,151.896728515625 336.18280029296875,131.07308959960938 "/>
   <path stroke="null" id="svg_11" fill="#FFE92F" d="m339.288715,135.174859l-18.623553,-18.623553c-0.775101,-0.775101 -0.775101,-2.031548 0,-2.806391l5.886181,-5.886181l21.429944,21.429944l-5.886181,5.886181c-0.774843,0.774843 -2.03129,0.774843 -2.806391,0z"/>
   <path stroke="null" id="svg_12" fill="#FFD82F" d="m326.551342,107.858734l-3.138025,3.138025l13.072356,13.072356c2.292578,2.292578 2.292578,6.009867 0,8.302702l0,0l2.803041,2.803041c0.775101,0.774843 2.031548,0.775101 2.806391,0l5.886181,-5.886181l-21.429944,-21.429944z"/>
   <path stroke="null" id="svg_13" fill="#FFC600" d="m351.573086,133.840077l-29.573143,-29.573143c-5.272903,-5.272903 -5.272903,-13.821947 0,-19.09485l0,0c1.253097,-1.253097 3.284903,-1.253097 4.538,0l44.129992,44.129992c1.253097,1.253097 1.253097,3.284903 0,4.538l0,0c-5.272903,5.272903 -13.821947,5.272903 -19.09485,0z"/>
   <path stroke="null" id="svg_14" fill="#F4AF00" d="m370.667935,129.302078l-8.649539,-8.649539c1.253097,1.253097 1.252839,3.284903 -0.000258,4.538l0,0c-5.272903,5.272903 -13.821947,5.272903 -19.09485,0l-10.461802,-10.461802l19.111341,19.111341c5.272903,5.272903 13.821947,5.272903 19.09485,0l0,0c1.253612,-1.253097 1.253612,-3.284903 0.000258,-4.538z"/>
   <path stroke="null" id="svg_15" fill="#FFE92F" d="m301.309025,157.679844l-3.14859,-3.14859c-5.048206,-5.048206 -5.048206,-13.233148 0,-18.281354l0,0c0.703466,-0.703466 1.844215,-0.703466 2.547938,0l18.882264,18.882264c0.703466,0.703466 0.703466,1.844215 0,2.547938l0,0c-5.048721,5.047948 -13.233406,5.047948 -18.281612,-0.000258z"/>
   <path stroke="null" id="svg_16" fill="#FFD82F" d="m319.590379,155.131905l-2.547938,-2.547938c-5.06444,4.811398 -13.069006,4.736671 -18.037331,-0.231912l-3.148848,-3.148848c-0.465627,-0.46537 -0.887449,-0.958054 -1.267012,-1.471867c0.456351,2.490733 1.645028,4.873757 3.571185,6.799656l3.148848,3.14859c5.048206,5.048206 13.233148,5.048206 18.281354,0l0,0c0.703208,-0.703466 0.703208,-1.844215 -0.000258,-2.547681z"/>
   <g stroke="null" transform="matrix(0.25767984442873915,0,0,0.25767984442873915,-4893.542707711301,-1013.9965052443947) " id="svg_17"/>
   <g stroke="null" transform="matrix(0.25767984442873915,0,0,0.25767984442873915,-4893.542707711301,-1013.9965052443947) " id="svg_18"/>
   <g stroke="null" transform="matrix(0.25767984442873915,0,0,0.25767984442873915,-4893.542707711301,-1013.9965052443947) " id="svg_19"/>
   <g stroke="null" transform="matrix(0.25767984442873915,0,0,0.25767984442873915,-4893.542707711301,-1013.9965052443947) " id="svg_20"/>
   <g stroke="null" transform="matrix(0.25767984442873915,0,0,0.25767984442873915,-4893.542707711301,-1013.9965052443947) " id="svg_21"/>
   <g stroke="null" transform="matrix(0.25767984442873915,0,0,0.25767984442873915,-4893.542707711301,-1013.9965052443947) " id="svg_22"/>
   <g stroke="null" transform="matrix(0.25767984442873915,0,0,0.25767984442873915,-4893.542707711301,-1013.9965052443947) " id="svg_23"/>
   <g stroke="null" transform="matrix(0.25767984442873915,0,0,0.25767984442873915,-4893.542707711301,-1013.9965052443947) " id="svg_24"/>
   <g stroke="null" transform="matrix(0.25767984442873915,0,0,0.25767984442873915,-4893.542707711301,-1013.9965052443947) " id="svg_25"/>
   <g stroke="null" transform="matrix(0.25767984442873915,0,0,0.25767984442873915,-4893.542707711301,-1013.9965052443947) " id="svg_26"/>
   <g stroke="null" transform="matrix(0.25767984442873915,0,0,0.25767984442873915,-4893.542707711301,-1013.9965052443947) " id="svg_27"/>
   <g stroke="null" transform="matrix(0.25767984442873915,0,0,0.25767984442873915,-4893.542707711301,-1013.9965052443947) " id="svg_28"/>
   <g stroke="null" transform="matrix(0.25767984442873915,0,0,0.25767984442873915,-4893.542707711301,-1013.9965052443947) " id="svg_29"/>
   <g stroke="null" transform="matrix(0.25767984442873915,0,0,0.25767984442873915,-4893.542707711301,-1013.9965052443947) " id="svg_30"/>
   <g stroke="null" transform="matrix(0.25767984442873915,0,0,0.25767984442873915,-4893.542707711301,-1013.9965052443947) " id="svg_31"/>
  </g>
 </g>
</svg>