<?xml version="1.0" encoding="UTF-8" standalone="no"?>
<svg
   xmlns:dc="http://purl.org/dc/elements/1.1/"
   xmlns:cc="http://creativecommons.org/ns#"
   xmlns:rdf="http://www.w3.org/1999/02/22-rdf-syntax-ns#"
   xmlns:svg="http://www.w3.org/2000/svg"
   xmlns="http://www.w3.org/2000/svg"
   xmlns:sodipodi="http://sodipodi.sourceforge.net/DTD/sodipodi-0.dtd"
   xmlns:inkscape="http://www.inkscape.org/namespaces/inkscape"
   width="600"
   height="465"
   preserveAspectRatio="xMidYMid meet"
   version="1.1"
   id="svg16"
   sodipodi:docname="looser.svg"
   inkscape:version="0.92.2 5c3e80d, 2017-08-06">
  <defs
     id="defs20" />
  <sodipodi:namedview
     pagecolor="#ffffff"
     bordercolor="#666666"
     borderopacity="1"
     objecttolerance="10"
     gridtolerance="10"
     guidetolerance="10"
     inkscape:pageopacity="0"
     inkscape:pageshadow="2"
     inkscape:window-width="1440"
     inkscape:window-height="789"
     id="namedview18"
     showgrid="false"
     inkscape:zoom="1.0150538"
     inkscape:cx="214.45422"
     inkscape:cy="242.17118"
     inkscape:window-x="0"
     inkscape:window-y="1"
     inkscape:window-maximized="1"
     inkscape:current-layer="svg16" />
  <metadata
     id="metadata2">Created by potrace 1.15, written by Peter Selinger 2001-2017<rdf:RDF>
  <cc:Work
     rdf:about="">
    <dc:format>image/svg+xml</dc:format>
    <dc:type
       rdf:resource="http://purl.org/dc/dcmitype/StillImage" />
  </cc:Work>
</rdf:RDF>
</metadata>
  <g
     id="g7">
    <title
       id="title4">background</title>
    <rect
       fill="none"
       id="canvas_background"
       height="402"
       width="582"
       y="-1"
       x="-1" />
  </g>
  <path
     style="fill:#ce7975;stroke-width:0"
     inkscape:connector-curvature="0"
     stroke-opacity="null"
     d="M 24.5,118.5 95,129 81,64 l 77,31 7,-55 47,48 16,-61 49,49 32,-55 33,57 53,-54 13,62 71,-41 -22,68 69,-7 -43,58 87,21 -98,45 113,40 -128,1 66,58 -114,-22 42,108 -80,-57 -13,55 -42,-30 -20,61 -38,-61 -56,43 -5,-48 -58,44 14,-72 -98,68 55,-88 -86,17 78,-62 H 23 L 72,242 18,196 84,169 C 64.16667,152.16667 44.33333,135.33333 24.5,118.5 Z"
     id="svg_4" />
  <path
     style="fill:#bf0000;stroke-width:0"
     inkscape:connector-curvature="0"
     d="m 365.90641,38.661071 c -11.5,14 -21.6,26.6 -22.4,28 -0.8,1.3 -1.7,2.4 -2.1,2.4 -0.3,0 -3.9,-6.9 -7.9,-15.3 -9.1,-18.7 -17.6,-34.500001 -20.3,-37.500001 -3.1,-3.3 -7.9,-3 -11.1,0.9 -1.4,1.7 -8.1,14 -14.8,27.3 l -12.2,24.3 -13,-13.6 c -27.5,-28.7 -36.2,-37.100001 -38.3,-37.100001 -5.3,0 -6.1,2 -11.8,29.8 -2.9,14.4 -5.5,26.6 -5.7,27 -0.2,0.5 -9.8,-9.8 -21.3,-22.7 -19.2,-21.5 -21.4,-23.6 -24.6,-23.9 -6.4,-0.5 -6.6,0 -7.9,30.8 -0.6,15.1 -1.3,27.6 -1.5,27.8 -0.4,0.5 -13.3,-6 -44.5,-22.3 -12.899999,-6.8 -24.399999,-12.5 -25.499999,-12.6 -3.5,-0.5 -6.5,1.1 -7.1,3.8 -0.5,1.7 2,14 7.1,35.000001 4.2,17.8 7.6,32.6 7.4,32.8 -0.5,0.3 -8.7,-1 -44.200001,-7.1 -22.3,-3.8 -26.2,-4.3 -28.5,-3.2 -2.9,1.5 -4.3,5.3 -2.9,8.3 0.5,1.1 13.4,11.9 28.7,24 18,14.3 27.3,22.3 26.5,22.7 -0.7,0.4 -13.7,5 -29,10.3 -15.2,5.2 -28.3,10 -29.1,10.6 -1.5,1.2 -1.9,6.6 -0.6,8.5 0.4,0.6 7,5.9 14.7,11.9 23,17.7 36.600001,28.8 36.300001,29.6 -0.2,0.4 -9.7,9.1 -21.3,19.4 -24.8,22 -25.5,22.8 -25.5,26.4 0,5.5 2,6.1 19.1,6.1 8.5,-0.1 24.2,-0.5 34.900001,-0.9 10.7,-0.5 19.6,-0.7 19.8,-0.6 0.2,0.2 -4.2,3.9 -9.8,8.2 -54.400001,42.1 -62.000001,48.5 -62.000001,52.4 0,3.9 3.4,6.4 8.4,6.2 4.6,-0.2 37.500001,-8.2 58.900001,-14.4 7.6,-2.2 14.2,-3.9 14.6,-3.7 0.5,0.2 -3.1,5.9 -7.9,12.8 -29.5,41.9 -43.400001,62.8 -43.800001,65.6 -0.5,3.9 1.9,6.4 6.1,6.4 3.2,0 14.7,-7.9 76.799999,-52.7 7.8,-5.7 14.4,-10.1 14.6,-9.9 0.4,0.3 -4.9,19.7 -12.6,46.1 -4.3,14.7 -4.7,17.5 -3.1,20.5 1.3,2.4 5.5,3.3 8.3,1.9 2.4,-1.3 28.5,-22.4 30.3,-24.5 2.8,-3.4 20.8,-17.4 21.5,-16.7 0.4,0.4 1.1,9.9 1.6,21.1 1.1,22.3 1.7,24.2 7.5,24.2 2.9,0 12,-6.6 21.8,-15.6 4.6,-4.3 34.4,-28.4 35,-28.4 0.5,0 2.4,3.3 10.8,19 11,20.8 22.3,40.5 23.9,41.8 2.4,1.7 6.7,1.5 8.5,-0.6 0.8,-0.9 5.4,-14.2 10.4,-29.4 4.9,-15.3 9.1,-27.8 9.4,-27.8 0.7,0 12.5,9.1 25.1,19.3 11.6,9.4 15.6,10.7 18.7,5.7 0.7,-1.1 3.1,-13.1 5.3,-26.7 2.2,-13.6 4.2,-24.9 4.4,-25.1 0.4,-0.4 16.3,11.4 18,13.4 2.3,2.6 56.1,42.8 58.6,43.7 4,1.5 7.9,-1.2 7.9,-5.6 0,-1.9 -8.6,-23.6 -20.5,-52.2 -11.2,-26.9 -20.3,-49 -20.2,-49.2 0.2,-0.1 24.9,5.4 55,12.3 47.90001,11 55.20001,12.4 57.70001,11.4 2.8,-1.2 4.4,-4.9 3.3,-7.7 -0.5,-1.4 -30.6,-28 -45.30001,-40 -4.1,-3.4 -9.3,-7.8 -11.5,-9.7 l -4,-3.5 59.00001,-0.1 c 65.6,0 63.5,0.2 63.5,-6.4 0,-1.9 -0.7,-3.9 -1.7,-4.8 -1.6,-1.3 -29.7,-10.1 -92.5,-28.9 -9.8,-2.9 -17.6,-5.4 -17.5,-5.5 0.8,-0.6 74.8,-32.8 81.2,-35.4 10.7,-4.1 15.9,-7.2 16.3,-9.4 0.6,-2.9 -0.7,-6.5 -2.8,-7.6 -1.9,-1 -34.7,-8.1 -67.5,-14.6 -7.7,-1.5 -14.6,-3 -15.2,-3.3 -1.2,-0.6 1.5,-4.2 30.7,-39.7 8.5,-10.5 10.4,-13.4 10.4,-16.1 0,-3.6 -2.5,-6.2 -6,-6.3 -2,0 -27.6,3.8 -53.40001,7.9 -6.3,1.1 -11.7,1.7 -11.9,1.5 -0.2,-0.2 1.7,-5.9 4.2,-12.600001 15.7,-42.000001 19.7,-53.200001 19.7,-55.100001 -0.1,-3.4 -2.6,-6 -5.9,-6 -3.1,0 -13.2,6.2 -49,30.1 -10.2,6.7 -18.8,11.9 -19.1,11.5 -0.7,-0.8 -3.8,-13.1 -10.6,-42.800001 -4.7,-20.7 -5.1,-21.5 -11,-21.5 -2.9,0 -4.8,2.1 -24,25.6 z m -48.8,10.1 c 4.9,9.3 10.7,21 13,26 5,11.2 5.9,12.3 9.3,12.3 3.4,0 4.1,-0.8 28.1,-30.3 12.7,-15.5 19.6,-23.3 20.1,-22.5 0.3,0.7 3.7,13.7 7.4,29 3.6,15.2 7.2,28.4 7.9,29.4 2.9,3.9 6.3,2.2 34.9,-16.5 15.4,-10 28.1,-18 28.3,-17.8 0.3,0.2 -4.3,13.4 -10.1,29.3 -5.8,15.799999 -10.5,29.499999 -10.5,30.299999 0,2.6 3.2,5.1 6.6,5.1 1.8,0 15.7,-1.8 30.9,-4.1 15.2,-2.2 27.9,-3.9 28.1,-3.6 0.3,0.2 -8.1,11.1 -18.6,24.2 -20.3,25.3 -21.6,27.8 -16.7,30.9 1.2,0.8 18.4,4.9 38.1,9.1 19.8,4.1 36.20001,7.7 36.40001,8 0.2,0.2 -1.10001,1 -2.9,1.8 -25.4,10.8 -88.70001,39.1 -89.50001,40 -0.7,0.7 -1.5,2.1 -1.8,3.3 -1.5,4.9 0.9,5.9 44.70001,19.3 23,7.1 42.1,13.1 42.4,13.5 0.4,0.3 -20.4,0.6 -46.20001,0.6 -42.2,0 -47,0.2 -48.7,1.7 -3,2.7 -2.2,6.2 2.4,10.5 2.3,2.1 14.4,12.7 26.9,23.5 12.6,10.9 22.5,19.9 22.1,20.1 -0.4,0.1 -22.3,-4.7 -48.6,-10.8 -42,-9.6 -48.2,-10.8 -50.5,-9.7 -5,2.4 -4.3,4.5 15.3,51.7 10.2,24.4 18.4,44.5 18.3,44.6 -0.1,0.1 -14.4,-10.6 -31.7,-23.8 -17.3,-13.1 -32.7,-24.5 -34.1,-25.3 -3.1,-1.7 -6.1,-1.1 -7.7,1.5 -0.6,1.1 -3.1,13.2 -5.4,27 -2.2,13.7 -4.4,25 -4.7,25 -0.3,0 -7.6,-5.4 -16.1,-12.1 -19.1,-14.8 -20.2,-15.4 -23.7,-13.7 -2.4,1.2 -3.6,4.2 -11.3,27.3 -6.1,18.4 -8.9,25.5 -9.6,24.5 -0.5,-0.8 -7.2,-12.7 -14.9,-26.4 -14.7,-26.1 -17.6,-29.8 -21.7,-27.9 -1.3,0.6 -13.1,9.9 -26.3,20.7 -13.2,10.7 -24.3,19.6 -24.6,19.6 -0.4,0 -1,-6.2 -1.4,-13.8 -1.5,-29.4 -2.2,-32.2 -8.1,-32.2 -1.5,0 -10.6,6.9 -25.3,19 -12.7,10.4 -23.3,19 -23.5,19 -0.2,0 3.4,-13.6 8,-30.2 4.6,-16.7 8.3,-31.1 8.4,-32 0,-2.5 -4.9,-6 -7.4,-5.2 -1.6,0.5 -66.2,45.70001 -75.5,52.80001 -2,1.5 -2.8,2.7 20.1,-30.7 11,-16 20.4,-30.2 20.9,-31.5 0.6,-1.4 0.5,-3.1 -0.1,-4.2 -2.4,-4.6 -3.3,-4.5 -37.500001,4.6 -17.9,4.7 -32.9,8.4 -33.4,8.2 -0.5,-0.2 9.5,-8.4 22.1,-18.3 38.100001,-29.8 41.800001,-33.1 41.800001,-36.40001 0,-1.6 -0.8,-3.7 -1.7,-4.6 -1.5,-1.6 -4.6,-1.7 -37.700001,-1 l -35.900001,0.7 19.5,-17.5 c 18.7,-16.8 20.8,-19.1 20.8,-22.2 0,-3.3 -9.5,-11.8 -37.400001,-33.3 l -11.8,-9.2 2.8,-1.1 c 1.6,-0.6 12.6,-4.4 24.4,-8.4 31.7,-10.8 33,-11.3 34.000001,-14.1 0.6,-1.6 0.6,-3.2 -0.1,-4.7 -0.6,-1.2 -11.4,-10.3 -23.9,-20.2 -12.5,-9.9 -22.7,-18.1 -22.5,-18.3 0.1,-0.1 11.1,1.6 24.5,3.8 28.5,4.7 32.1,4.9 35.000002,1.8 1.1,-1.2 2,-2.5 2,-2.9 0,-0.4 -3.1,-14.1 -7.000001,-30.4 -3.8,-16.299996 -7,-30.099996 -7,-30.599996 0,-0.6 8.2,3.3 18.300001,8.6 22.4,11.9 43.3,22.099996 46.8,22.899996 1.9,0.4 3.3,0 5.2,-1.8 3,-2.799996 3.5,-5.899996 5.1,-32.399996 l 1.1,-18.4 18.1,20.4 c 22.4,25.1 23.1,25.8 26,25.8 4.4,0 5.7,-3.6 11.3,-31.3 3,-14.7 5.7,-26.7 6.1,-26.7 0.3,0 10.7,10.6 23,23.5 12.3,12.9 23,23.7 23.7,24 2.8,1 5,0.5 7,-1.8 1.1,-1.2 7.5,-13.3 14.2,-27 6.6,-13.6 12.3,-24.7 12.5,-24.7 0.3,0 4.4,7.5 9.2,16.7 z"
     id="svg_2" />
  <text
     style="font-weight:bold;font-size:69.46335602px;font-family:'Trebuchet MS', Gadget, sans-serif;text-anchor:start;fill:#540000;stroke-width:8.26944733"
     stroke="null"
     stroke-opacity="null"
     x="59.04607"
     y="308.33548"
     id="svg_5"
     font-size="84"
     xml:space="preserve"
     transform="rotate(-15)"
     font-weight="bold">YOU LOST</text>
</svg>
