<?xml version="1.0" encoding="UTF-8" standalone="no"?>
<!-- Generator: Adobe Illustrator 19.0.0, SVG Export Plug-In . SVG Version: 6.00 Build 0)  -->

<svg
   xmlns:dc="http://purl.org/dc/elements/1.1/"
   xmlns:cc="http://creativecommons.org/ns#"
   xmlns:rdf="http://www.w3.org/1999/02/22-rdf-syntax-ns#"
   xmlns:svg="http://www.w3.org/2000/svg"
   xmlns="http://www.w3.org/2000/svg"
   xmlns:sodipodi="http://sodipodi.sourceforge.net/DTD/sodipodi-0.dtd"
   xmlns:inkscape="http://www.inkscape.org/namespaces/inkscape"
   version="1.1"
   id="Capa_1"
   x="0px"
   y="0px"
   viewBox="0 0 512 512"
   style="enable-background:new 0 0 512 512;"
   xml:space="preserve"
   width="512px"
   height="512px"
   sodipodi:docname="tijera.svg"
   inkscape:version="0.92.2 5c3e80d, 2017-08-06"><metadata
     id="metadata55"><rdf:RDF><cc:Work
         rdf:about=""><dc:format>image/svg+xml</dc:format><dc:type
           rdf:resource="http://purl.org/dc/dcmitype/StillImage" /></cc:Work></rdf:RDF></metadata><defs
     id="defs53" /><sodipodi:namedview
     pagecolor="#ffffff"
     bordercolor="#666666"
     borderopacity="1"
     objecttolerance="10"
     gridtolerance="10"
     guidetolerance="10"
     inkscape:pageopacity="0"
     inkscape:pageshadow="2"
     inkscape:window-width="1440"
     inkscape:window-height="789"
     id="namedview51"
     showgrid="false"
     inkscape:zoom="0.65186406"
     inkscape:cx="-24.352074"
     inkscape:cy="375.0233"
     inkscape:window-x="0"
     inkscape:window-y="1"
     inkscape:window-maximized="1"
     inkscape:current-layer="Capa_1" /><g
     id="g6"
     style="fill:#ffffff"
     transform="matrix(-1,0,0,1,512.00081,0)"><g
       id="g4"
       style="fill:#ffffff"><path
         d="m 391.59,170.667 c -23.531,0 -42.667,19.136 -42.667,42.667 V 288 c 0,23.531 19.136,42.667 42.667,42.667 7.765,0 15.061,-2.091 21.333,-5.739 v 40.853 c 0,68.864 -56,124.885 -124.885,124.885 H 240.87 c -18.389,0 -36.779,-4.352 -53.227,-12.587 -33.301,-16.661 -57.152,-48.469 -63.808,-85.12 l -8.981,-49.216 c -0.384,-2.24 -0.597,-4.523 -0.597,-6.805 0,-17.579 11.947,-32.683 29.056,-36.693 l 134.229,-31.573 c 1.621,8.832 0.533,17.941 -3.243,26.347 -4.992,11.221 -14.123,19.712 -25.664,23.915 l -45.973,16.725 c -7.275,2.645 -13.077,8.277 -15.957,15.467 -2.859,7.189 -2.496,15.253 0.96,22.165 l 13.056,26.133 c 2.645,5.291 9.024,7.381 14.315,4.779 5.269,-2.645 7.403,-9.045 4.779,-14.315 l -13.056,-26.155 c -1.024,-2.005 -0.576,-3.819 -0.213,-4.715 0.341,-0.917 1.259,-2.539 3.413,-3.328 l 45.973,-16.725 c 17.003,-6.187 30.443,-18.688 37.845,-35.221 7.403,-16.533 7.765,-34.901 1.045,-51.712 -1.963,-4.907 -7.189,-7.573 -12.331,-6.421 L 138.448,279.51 c -26.816,6.293 -45.525,29.909 -45.525,57.451 0,3.52 0.341,7.04 0.939,10.581 l 8.981,49.28 c 7.851,43.2 35.989,80.747 75.264,100.373 19.371,9.685 41.067,14.805 62.742,14.805 h 47.168 c 80.64,0 146.24,-65.6 146.24,-146.219 V 213.333 c 0,-23.53 -19.136,-42.666 -42.667,-42.666 z M 412.924,288 c 0,11.755 -9.557,21.333 -21.333,21.333 -11.776,0 -21.333,-9.579 -21.333,-21.333 v -74.667 c 0,-11.755 9.557,-21.333 21.333,-21.333 11.776,0 21.333,9.579 21.333,21.333 z"
         id="path2"
         style="fill:#ffffff"
         inkscape:connector-curvature="0" /></g></g><g
     id="g12"
     style="fill:#ffffff"
     transform="matrix(-1,0,0,1,512.00081,0)"><g
       id="g10"
       style="fill:#ffffff"><path
         d="m 370.257,213.333 v -42.667 c 0,-23.531 -19.136,-42.667 -42.667,-42.667 -23.531,0 -42.667,19.136 -42.667,42.667 v 106.667 c 0,23.531 19.136,42.667 42.667,42.667 23.509,0 42.667,-19.136 42.667,-42.667 v -42.667 c 0,-5.888 -4.779,-10.667 -10.667,-10.667 -5.888,0 -10.667,4.779 -10.667,10.667 v 42.667 c 0,11.755 -9.557,21.333 -21.333,21.333 -11.776,0 -21.333,-9.579 -21.333,-21.333 V 170.667 c 0,-11.755 9.557,-21.333 21.333,-21.333 11.776,0 21.333,9.579 21.333,21.333 v 42.667 c 0,5.888 4.779,10.667 10.667,10.667 5.888,0 10.667,-4.78 10.667,-10.668 z"
         id="path8"
         style="fill:#ffffff"
         inkscape:connector-curvature="0" /></g></g><g
     id="g18"
     style="fill:#ffffff"
     transform="matrix(-1,0,0,1,512.00081,0)"><g
       id="g16"
       style="fill:#ffffff"><path
         d="M 261.99,0 C 239.142,0 220.219,17.131 217.894,40.512 L 211.963,199.061 160.06,82.688 C 155.132,71.403 145.553,62.741 133.799,58.987 122.044,55.254 109.202,56.726 98.642,63.083 81.511,73.344 73.746,93.803 79.762,112.854 l 56.32,178.347 c 1.451,4.565 5.632,7.467 10.176,7.467 1.067,0 2.155,-0.149 3.221,-0.491 5.611,-1.771 8.725,-7.765 6.955,-13.376 L 100.093,106.433 c -3.029,-9.579 0.896,-19.883 9.493,-25.067 5.333,-3.2 11.819,-3.947 17.707,-2.048 5.931,1.899 10.752,6.229 13.248,11.989 l 59.861,134.208 c 3.2,7.189 10.773,11.072 18.581,9.643 7.744,-1.515 13.291,-8.064 13.589,-15.893 l 6.613,-177.301 c 1.173,-11.755 10.965,-20.629 22.805,-20.629 12.651,0 22.933,10.283 22.933,22.933 v 126.4 c 0,5.888 4.779,10.667 10.667,10.667 5.888,0 10.667,-4.779 10.667,-10.667 V 44.268 C 306.257,19.861 286.417,0 261.99,0 Z"
         id="path14"
         style="fill:#ffffff"
         inkscape:connector-curvature="0" /></g></g><g
     id="g20" /><g
     id="g22" /><g
     id="g24" /><g
     id="g26" /><g
     id="g28" /><g
     id="g30" /><g
     id="g32" /><g
     id="g34" /><g
     id="g36" /><g
     id="g38" /><g
     id="g40" /><g
     id="g42" /><g
     id="g44" /><g
     id="g46" /><g
     id="g48" /></svg>