<svg width="199" height="199" xmlns="http://www.w3.org/2000/svg">
 <!-- Created with Method Draw - http://github.com/duopixel/Method-Draw/ -->

 <g>
  <title>background</title>
  <rect fill="#fff" id="canvas_background" height="201" width="201" y="-1" x="-1"/>
  <g display="none" overflow="visible" y="0" x="0" height="100%" width="100%" id="canvasGrid">
   <rect fill="url(#gridpattern)" stroke-width="0" y="0" x="0" height="100%" width="100%"/>
  </g>
 </g>
 <g>
  <title>Layer 1</title>
  <g stroke="null" id="svg_59">
   <g stroke="null" id="svg_31">
    <path stroke="null" id="svg_5" fill="#CDD2DF" d="m78.654842,125.14962l-22.763099,-22.763099l67.50548,-67.505165c5.3302,-5.3302 11.927607,-9.218734 19.172472,-11.300617l16.238122,-4.666051c2.026144,-0.582272 3.901445,1.293029 3.319172,3.319172l-4.666051,16.238122c-2.081883,7.244865 -5.970417,13.842272 -11.300617,19.172472l-67.50548,67.505165z"/>
    <path stroke="null" id="svg_6" fill="#BBC6D4" d="m146.160007,57.64414c5.3302,-5.3302 9.218734,-11.927607 11.300617,-19.172472l4.666366,-16.238122c0.272714,-0.94946 0.002204,-1.862075 -0.566842,-2.507644l-42.02973,42.030045l-52.134941,52.134626l11.259049,11.259049l67.50548,-67.50548z"/>
    <path stroke="null" id="svg_7" fill="#FFFFFF" d="m67.395793,116.486706c-0.664464,0 -1.328929,-0.253504 -1.835622,-0.760512c-1.014017,-1.013702 -1.014017,-2.657542 0,-3.671559l52.134626,-52.134626c1.013702,-1.013702 2.657542,-1.013702 3.671244,0c1.014017,1.013702 1.014017,2.657542 0,3.671559l-52.134626,52.134626c-0.507008,0.507008 -1.171158,0.760512 -1.835622,0.760512z"/>
    <rect stroke="null" id="svg_8" fill="#FF9400" height="114.289" width="62.649" transform="matrix(-0.22493493769396192,-0.22493493769396192,0.22493493769396192,-0.22493493769396192,-105.83528744258835,-391.84849430450186) " y="-949.912214" x="-1540.03926"/>
    <polygon stroke="null" id="svg_9" fill="#FF7A00" points="38.520076751708984,128.42807006835938 38.520076751708984,128.42807006835938 47.74620056152344,137.6539306640625 22.038846969604492,163.3612518310547 12.812727928161621,154.1354522705078 12.812727928161621,154.1354522705078 26.905916213989258,168.22830200195312 52.61326217651367,142.5213165283203 "/>
    <path stroke="null" id="svg_10" fill="#FFE92F" d="m56.447432,147.584943l-22.991016,-22.991016c-0.956872,-0.956872 -0.956872,-2.507972 0,-3.464526l7.266566,-7.266566l26.455542,26.455542l-7.266566,7.266566c-0.956554,0.956554 -2.507654,0.956554 -3.464526,0z"/>
    <path stroke="null" id="svg_11" fill="#FFD82F" d="m40.722982,113.862835l-3.873933,3.873933l16.137992,16.137992c2.830217,2.830217 2.830217,7.419258 0,10.249793l0,0l3.460391,3.460391c0.956872,0.956554 2.507972,0.956872 3.464526,0l7.266566,-7.266566l-26.455542,-26.455542z"/>
    <path stroke="null" id="svg_12" fill="#FFC600" d="m71.612647,145.937138l-36.508426,-36.508426c-6.509466,-6.509466 -6.509466,-17.063372 0,-23.572838l0,0c1.546965,-1.546965 4.055255,-1.546965 5.602219,0l54.479045,54.479045c1.546965,1.546965 1.546965,4.055255 0,5.602219l0,0c-6.509466,6.509466 -17.063372,6.509466 -23.572838,0z"/>
    <path stroke="null" id="svg_13" fill="#F4AF00" d="m95.185485,140.334919l-10.677968,-10.677968c1.546965,1.546965 1.546646,4.055255 -0.000318,5.602219l0,0c-6.509466,6.509466 -17.063372,6.509466 -23.572838,0l-12.915229,-12.915229l23.593197,23.593197c6.509466,6.509466 17.063372,6.509466 23.572838,0l0,0c1.547601,-1.546965 1.547601,-4.055255 0.000318,-5.602219z"/>
    <path stroke="null" id="svg_14" fill="#FFE92F" d="m9.561015,175.367637l-3.886975,-3.886975c-6.232075,-6.232075 -6.232075,-16.336492 0,-22.568568l0,0c0.868438,-0.868438 2.276707,-0.868438 3.145463,0l23.310398,23.310398c0.868438,0.868438 0.868438,2.276707 0,3.145463l0,0c-6.232711,6.231757 -16.33681,6.231757 -22.568886,-0.000318z"/>
    <path stroke="null" id="svg_15" fill="#FFD82F" d="m32.129583,172.222174l-3.145463,-3.145463c-6.252116,5.939733 -16.133857,5.847481 -22.267318,-0.286298l-3.887293,-3.887293c-0.574823,-0.574505 -1.095568,-1.18273 -1.564142,-1.817039c0.563371,3.074842 2.030808,6.016715 4.408674,8.394263l3.887293,3.886975c6.232075,6.232075 16.336492,6.232075 22.568568,0l0,0c0.86812,-0.868438 0.86812,-2.276707 -0.000318,-3.145145z"/>
    <g stroke="null" transform="matrix(0.3181090902191513,0,0,0.3181090902191513,-67.23058620268094,-638.1732462793443) " id="svg_16"/>
    <g stroke="null" transform="matrix(0.3181090902191513,0,0,0.3181090902191513,-67.23058620268094,-638.1732462793443) " id="svg_17"/>
    <g stroke="null" transform="matrix(0.3181090902191513,0,0,0.3181090902191513,-67.23058620268094,-638.1732462793443) " id="svg_18"/>
    <g stroke="null" transform="matrix(0.3181090902191513,0,0,0.3181090902191513,-67.23058620268094,-638.1732462793443) " id="svg_19"/>
    <g stroke="null" transform="matrix(0.3181090902191513,0,0,0.3181090902191513,-67.23058620268094,-638.1732462793443) " id="svg_20"/>
    <g stroke="null" transform="matrix(0.3181090902191513,0,0,0.3181090902191513,-67.23058620268094,-638.1732462793443) " id="svg_21"/>
    <g stroke="null" transform="matrix(0.3181090902191513,0,0,0.3181090902191513,-67.23058620268094,-638.1732462793443) " id="svg_22"/>
    <g stroke="null" transform="matrix(0.3181090902191513,0,0,0.3181090902191513,-67.23058620268094,-638.1732462793443) " id="svg_23"/>
    <g stroke="null" transform="matrix(0.3181090902191513,0,0,0.3181090902191513,-67.23058620268094,-638.1732462793443) " id="svg_24"/>
    <g stroke="null" transform="matrix(0.3181090902191513,0,0,0.3181090902191513,-67.23058620268094,-638.1732462793443) " id="svg_25"/>
    <g stroke="null" transform="matrix(0.3181090902191513,0,0,0.3181090902191513,-67.23058620268094,-638.1732462793443) " id="svg_26"/>
    <g stroke="null" transform="matrix(0.3181090902191513,0,0,0.3181090902191513,-67.23058620268094,-638.1732462793443) " id="svg_27"/>
    <g stroke="null" transform="matrix(0.3181090902191513,0,0,0.3181090902191513,-67.23058620268094,-638.1732462793443) " id="svg_28"/>
    <g stroke="null" transform="matrix(0.3181090902191513,0,0,0.3181090902191513,-67.23058620268094,-638.1732462793443) " id="svg_29"/>
    <g stroke="null" transform="matrix(0.3181090902191513,0,0,0.3181090902191513,-67.23058620268094,-638.1732462793443) " id="svg_30"/>
   </g>
   <g stroke="null" transform="matrix(0,-1.165680489297006,1.165680489297006,0,-16.69359683375047,235.66125733847431) " id="svg_58">
    <path stroke="null" id="svg_32" fill="#CDD2DF" d="m115.008174,136.610526l-19.72599,-19.72598l58.49872,-58.49845c4.61903,-4.61903 10.3362,-7.98875 16.61443,-9.79286l14.07159,-4.0435c1.75581,-0.50458 3.38091,1.12051 2.87632,2.87632l-4.04349,14.07159c-1.80412,6.27824 -5.17383,11.9954 -9.79286,16.61443l-58.49872,58.49845z"/>
    <path stroke="null" id="svg_33" fill="#BBC6D4" d="m173.506624,78.111806c4.61903,-4.61903 7.98874,-10.33619 9.79285,-16.61443l4.04377,-14.07159c0.23633,-0.82278 0.00191,-1.61363 -0.49121,-2.17307l-36.42201,36.42229l-45.17896,45.17869l9.75683,9.75683l58.49873,-58.49872z"/>
    <path stroke="null" id="svg_34" fill="#FFFFFF" d="m105.251334,129.103446c-0.57581,0 -1.15162,-0.21968 -1.59071,-0.65904c-0.87872,-0.87846 -0.87872,-2.30297 0,-3.18169l45.17869,-45.17869c0.87845,-0.87845 2.30296,-0.87845 3.18142,0c0.87872,0.87845 0.87872,2.30296 0,3.18169l-45.17869,45.17869c-0.43936,0.43936 -1.0149,0.65904 -1.59071,0.65904z"/>
    <rect stroke="null" id="svg_35" fill="#FF9400" height="114.289" width="62.649" transform="matrix(-0.19296448706078523,-0.19296448706078523,0.19296448706078523,-0.19296448706078523,-89.51352213383056,-309.00114403718095) " y="-838.483466" x="-1664.805209"/>
    <polygon stroke="null" id="svg_36" fill="#FF7A00" points="79.90151578187943,139.9010772705078 79.90151578187943,139.9010772705078 87.81631070375443,147.81564331054688 65.76279813051224,169.869140625 57.84800320863724,161.9546356201172 57.84800320863724,161.9546356201172 69.93809872865677,174.04441833496094 91.99160367250443,151.99122619628906 "/>
    <path stroke="null" id="svg_37" fill="#FFE92F" d="m95.280824,156.335156l-19.72326,-19.72326c-0.82087,-0.82087 -0.82087,-2.15151 0,-2.97211l6.23375,-6.23375l22.69537,22.69536l-6.23376,6.23376c-0.8206,0.82059 -2.15123,0.82059 -2.9721,0z"/>
    <path stroke="null" id="svg_38" fill="#FFD82F" d="m81.791314,127.406036l-3.32332,3.32332l13.84427,13.84427c2.42795,2.42795 2.42795,6.36474 0,8.79297l0,0l2.96856,2.96856c0.82087,0.82059 2.1515,0.82087 2.9721,0l6.23376,-6.23376l-22.69537,-22.69536z"/>
    <path stroke="null" id="svg_39" fill="#FFC600" d="m108.290574,154.921556l-31.31941,-31.31941c-5.58427,-5.58427 -5.58427,-14.63813 0,-20.22239l0,0c1.32709,-1.32709 3.47887,-1.32709 4.80596,0l46.73583,46.73583c1.32709,1.32709 1.32709,3.47887 0,4.80597l0,0c-5.58426,5.58426 -14.63812,5.58426 -20.22238,0z"/>
    <path stroke="null" id="svg_40" fill="#F4AF00" d="m128.512954,150.115586l-9.16029,-9.16029c1.3271,1.3271 1.32682,3.47888 -0.00027,4.80597l0,0c-5.58426,5.58426 -14.63812,5.58426 -20.22238,0l-11.07956,-11.07956l20.23985,20.23985c5.58426,5.58426 14.63812,5.58426 20.22238,0l0,0c1.32764,-1.3271 1.32764,-3.47888 0.00027,-4.80597z"/>
    <path stroke="null" id="svg_41" fill="#FFE92F" d="m55.058464,180.169036l-3.33451,-3.33451c-5.3463,-5.3463 -5.3463,-14.01456 0,-19.36085l0,0c0.745,-0.74501 1.95311,-0.74501 2.69839,0l19.99724,19.99724c0.74501,0.74501 0.74501,1.95311 0,2.69839l0,0c-5.34684,5.34603 -14.01482,5.34603 -19.36112,-0.00027z"/>
    <path stroke="null" id="svg_42" fill="#FFD82F" d="m74.419314,177.470646l-2.69839,-2.69839c-5.36349,5.0955 -13.84072,5.01636 -19.10242,-0.24561l-3.33479,-3.33478c-0.49312,-0.49285 -0.93985,-1.01463 -1.34182,-1.55878c0.4833,2.6378 1.74216,5.16154 3.78206,7.20117l3.33478,3.33451c5.3463,5.34629 14.01456,5.34629 19.36085,0l0,0c0.74474,-0.74501 0.74474,-1.95312 -0.00027,-2.69812z"/>
    <g stroke="null" transform="matrix(0.2728956117391956,0,0,0.2728956117391956,-56.39578395911944,-520.3152684791154) " id="svg_43"/>
    <g stroke="null" transform="matrix(0.2728956117391956,0,0,0.2728956117391956,-56.39578395911944,-520.3152684791154) " id="svg_44"/>
    <g stroke="null" transform="matrix(0.2728956117391956,0,0,0.2728956117391956,-56.39578395911944,-520.3152684791154) " id="svg_45"/>
    <g stroke="null" transform="matrix(0.2728956117391956,0,0,0.2728956117391956,-56.39578395911944,-520.3152684791154) " id="svg_46"/>
    <g stroke="null" transform="matrix(0.2728956117391956,0,0,0.2728956117391956,-56.39578395911944,-520.3152684791154) " id="svg_47"/>
    <g stroke="null" transform="matrix(0.2728956117391956,0,0,0.2728956117391956,-56.39578395911944,-520.3152684791154) " id="svg_48"/>
    <g stroke="null" transform="matrix(0.2728956117391956,0,0,0.2728956117391956,-56.39578395911944,-520.3152684791154) " id="svg_49"/>
    <g stroke="null" transform="matrix(0.2728956117391956,0,0,0.2728956117391956,-56.39578395911944,-520.3152684791154) " id="svg_50"/>
    <g stroke="null" transform="matrix(0.2728956117391956,0,0,0.2728956117391956,-56.39578395911944,-520.3152684791154) " id="svg_51"/>
    <g stroke="null" transform="matrix(0.2728956117391956,0,0,0.2728956117391956,-56.39578395911944,-520.3152684791154) " id="svg_52"/>
    <g stroke="null" transform="matrix(0.2728956117391956,0,0,0.2728956117391956,-56.39578395911944,-520.3152684791154) " id="svg_53"/>
    <g stroke="null" transform="matrix(0.2728956117391956,0,0,0.2728956117391956,-56.39578395911944,-520.3152684791154) " id="svg_54"/>
    <g stroke="null" transform="matrix(0.2728956117391956,0,0,0.2728956117391956,-56.39578395911944,-520.3152684791154) " id="svg_55"/>
    <g stroke="null" transform="matrix(0.2728956117391956,0,0,0.2728956117391956,-56.39578395911944,-520.3152684791154) " id="svg_56"/>
    <g stroke="null" transform="matrix(0.2728956117391956,0,0,0.2728956117391956,-56.39578395911944,-520.3152684791154) " id="svg_57"/>
   </g>
  </g>
 </g>
</svg>